{
	"asset":{
		"generator":"Khronos glTF Blender I/O v3.6.28",
		"version":"2.0"
	},
	"scene":0,
	"scenes":[
		{
			"name":"Scene",
			"nodes":[
				0
			]
		}
	],
	"nodes":[
		{
			"mesh":0,
			"name":"Ribbon",
			"rotation":[
				-0.7014749050140381,
				0,
				-0.7126942276954651,
				1.1428475943375815e-07
			],
			"translation":[
				-0.028908418491482735,
				-9.783863067626953,
				0
			]
		}
	],
	"animations":[
		{
			"channels":[
				{
					"sampler":0,
					"target":{
						"node":0,
						"path":"translation"
					}
				},
				{
					"sampler":1,
					"target":{
						"node":0,
						"path":"rotation"
					}
				},
				{
					"sampler":2,
					"target":{
						"node":0,
						"path":"scale"
					}
				}
			],
			"name":"Ribbon_Down",
			"samplers":[
				{
					"input":8,
					"interpolation":"LINEAR",
					"output":9
				},
				{
					"input":10,
					"interpolation":"STEP",
					"output":11
				},
				{
					"input":10,
					"interpolation":"STEP",
					"output":12
				}
			]
		},
		{
			"channels":[
				{
					"sampler":0,
					"target":{
						"node":0,
						"path":"translation"
					}
				},
				{
					"sampler":1,
					"target":{
						"node":0,
						"path":"rotation"
					}
				},
				{
					"sampler":2,
					"target":{
						"node":0,
						"path":"scale"
					}
				}
			],
			"name":"Ribbon_IDLE",
			"samplers":[
				{
					"input":13,
					"interpolation":"STEP",
					"output":14
				},
				{
					"input":15,
					"interpolation":"LINEAR",
					"output":16
				},
				{
					"input":13,
					"interpolation":"STEP",
					"output":17
				}
			]
		}
	],
	"materials":[
		{
			"doubleSided":true,
			"name":"Green",
			"pbrMetallicRoughness":{
				"metallicFactor":0,
				"roughnessFactor":0.5
			}
		},
		{
			"doubleSided":true,
			"name":"Red",
			"pbrMetallicRoughness":{
				"metallicFactor":0,
				"roughnessFactor":0.5
			}
		}
	],
	"meshes":[
		{
			"name":"Cube.002",
			"primitives":[
				{
					"attributes":{
						"POSITION":0,
						"NORMAL":1,
						"TEXCOORD_0":2
					},
					"indices":3,
					"material":0
				},
				{
					"attributes":{
						"POSITION":4,
						"NORMAL":5,
						"TEXCOORD_0":6
					},
					"indices":7,
					"material":1
				}
			]
		}
	],
	"accessors":[
		{
			"bufferView":0,
			"componentType":5126,
			"count":2558,
			"max":[
				1.9291775226593018,
				7.984989643096924,
				2.0729758739471436
			],
			"min":[
				-2.094698429107666,
				-8.081182479858398,
				-1.994063377380371
			],
			"type":"VEC3"
		},
		{
			"bufferView":1,
			"componentType":5126,
			"count":2558,
			"type":"VEC3"
		},
		{
			"bufferView":2,
			"componentType":5126,
			"count":2558,
			"type":"VEC2"
		},
		{
			"bufferView":3,
			"componentType":5123,
			"count":12864,
			"type":"SCALAR"
		},
		{
			"bufferView":4,
			"componentType":5126,
			"count":2469,
			"max":[
				1.9279011487960815,
				7.984989643096924,
				2.0729758739471436
			],
			"min":[
				-2.0930304527282715,
				-8.081182479858398,
				-1.9932425022125244
			],
			"type":"VEC3"
		},
		{
			"bufferView":5,
			"componentType":5126,
			"count":2469,
			"type":"VEC3"
		},
		{
			"bufferView":6,
			"componentType":5126,
			"count":2469,
			"type":"VEC2"
		},
		{
			"bufferView":7,
			"componentType":5123,
			"count":12864,
			"type":"SCALAR"
		},
		{
			"bufferView":8,
			"componentType":5126,
			"count":101,
			"max":[
				3.3333333333333335
			],
			"min":[
				0
			],
			"type":"SCALAR"
		},
		{
			"bufferView":9,
			"componentType":5126,
			"count":101,
			"type":"VEC3"
		},
		{
			"bufferView":10,
			"componentType":5126,
			"count":2,
			"max":[
				3.3333333333333335
			],
			"min":[
				0
			],
			"type":"SCALAR"
		},
		{
			"bufferView":11,
			"componentType":5126,
			"count":2,
			"type":"VEC4"
		},
		{
			"bufferView":12,
			"componentType":5126,
			"count":2,
			"type":"VEC3"
		},
		{
			"bufferView":13,
			"componentType":5126,
			"count":2,
			"max":[
				3.3333333333333335
			],
			"min":[
				0.03333333333333333
			],
			"type":"SCALAR"
		},
		{
			"bufferView":14,
			"componentType":5126,
			"count":2,
			"type":"VEC3"
		},
		{
			"bufferView":15,
			"componentType":5126,
			"count":100,
			"max":[
				3.3333333333333335
			],
			"min":[
				0.03333333333333333
			],
			"type":"SCALAR"
		},
		{
			"bufferView":16,
			"componentType":5126,
			"count":100,
			"type":"VEC4"
		},
		{
			"bufferView":17,
			"componentType":5126,
			"count":2,
			"type":"VEC3"
		}
	],
	"bufferViews":[
		{
			"buffer":0,
			"byteLength":30696,
			"byteOffset":0,
			"target":34962
		},
		{
			"buffer":0,
			"byteLength":30696,
			"byteOffset":30696,
			"target":34962
		},
		{
			"buffer":0,
			"byteLength":20464,
			"byteOffset":61392,
			"target":34962
		},
		{
			"buffer":0,
			"byteLength":25728,
			"byteOffset":81856,
			"target":34963
		},
		{
			"buffer":0,
			"byteLength":29628,
			"byteOffset":107584,
			"target":34962
		},
		{
			"buffer":0,
			"byteLength":29628,
			"byteOffset":137212,
			"target":34962
		},
		{
			"buffer":0,
			"byteLength":19752,
			"byteOffset":166840,
			"target":34962
		},
		{
			"buffer":0,
			"byteLength":25728,
			"byteOffset":186592,
			"target":34963
		},
		{
			"buffer":0,
			"byteLength":404,
			"byteOffset":212320
		},
		{
			"buffer":0,
			"byteLength":1212,
			"byteOffset":212724
		},
		{
			"buffer":0,
			"byteLength":8,
			"byteOffset":213936
		},
		{
			"buffer":0,
			"byteLength":32,
			"byteOffset":213944
		},
		{
			"buffer":0,
			"byteLength":24,
			"byteOffset":213976
		},
		{
			"buffer":0,
			"byteLength":8,
			"byteOffset":214000
		},
		{
			"buffer":0,
			"byteLength":24,
			"byteOffset":214008
		},
		{
			"buffer":0,
			"byteLength":400,
			"byteOffset":214032
		},
		{
			"buffer":0,
			"byteLength":1600,
			"byteOffset":214432
		},
		{
			"buffer":0,
			"byteLength":24,
			"byteOffset":216032
		}
	],
	"buffers":[
		{
			"byteLength":216056,
			"uri":"data:application/octet-stream;base64,"
		}
	]
}
