{
	"asset":{
		"generator":"Khronos glTF Blender I/O v3.6.28",
		"version":"2.0"
	},
	"scene":0,
	"scenes":[
		{
			"name":"Scene",
			"nodes":[
				0
			]
		}
	],
	"nodes":[
		{
			"mesh":0,
			"name":"Cube.001",
			"rotation":[
				-1,
				0,
				0,
				1.6292068494294654e-07
			],
			"translation":[
				-0.028908418491482735,
				-8.414785385131836,
				0
			]
		}
	],
	"animations":[
		{
			"channels":[
				{
					"sampler":0,
					"target":{
						"node":0,
						"path":"translation"
					}
				},
				{
					"sampler":1,
					"target":{
						"node":0,
						"path":"rotation"
					}
				}
			],
			"name":"Cube.001Action",
			"samplers":[
				{
					"input":8,
					"interpolation":"LINEAR",
					"output":9
				},
				{
					"input":8,
					"interpolation":"LINEAR",
					"output":10
				}
			]
		}
	],
	"materials":[
		{
			"doubleSided":true,
			"name":"Green",
			"pbrMetallicRoughness":{
				"baseColorFactor":[
					0.022625938057899475,
					0.8000000715255737,
					0,
					1
				],
				"metallicFactor":0,
				"roughnessFactor":0.5
			}
		},
		{
			"doubleSided":true,
			"name":"Red",
			"pbrMetallicRoughness":{
				"baseColorFactor":[
					0.8000000715255737,
					0.002678099786862731,
					0,
					1
				],
				"metallicFactor":0,
				"roughnessFactor":0.5
			}
		}
	],
	"meshes":[
		{
			"name":"Cube.002",
			"primitives":[
				{
					"attributes":{
						"POSITION":0,
						"NORMAL":1,
						"TEXCOORD_0":2
					},
					"indices":3,
					"material":0
				},
				{
					"attributes":{
						"POSITION":4,
						"NORMAL":5,
						"TEXCOORD_0":6
					},
					"indices":7,
					"material":1
				}
			]
		}
	],
	"accessors":[
		{
			"bufferView":0,
			"componentType":5126,
			"count":2779,
			"max":[
				1.9291775226593018,
				7.985123634338379,
				2.073106527328491
			],
			"min":[
				-2.094698429107666,
				-8.081182479858398,
				-1.994063377380371
			],
			"type":"VEC3"
		},
		{
			"bufferView":1,
			"componentType":5126,
			"count":2779,
			"type":"VEC3"
		},
		{
			"bufferView":2,
			"componentType":5126,
			"count":2779,
			"type":"VEC2"
		},
		{
			"bufferView":3,
			"componentType":5123,
			"count":14136,
			"type":"SCALAR"
		},
		{
			"bufferView":4,
			"componentType":5126,
			"count":2698,
			"max":[
				1.9279011487960815,
				7.984989643096924,
				2.0729758739471436
			],
			"min":[
				-2.0930304527282715,
				-8.081182479858398,
				-1.9932425022125244
			],
			"type":"VEC3"
		},
		{
			"bufferView":5,
			"componentType":5126,
			"count":2698,
			"type":"VEC3"
		},
		{
			"bufferView":6,
			"componentType":5126,
			"count":2698,
			"type":"VEC2"
		},
		{
			"bufferView":7,
			"componentType":5123,
			"count":14136,
			"type":"SCALAR"
		},
		{
			"bufferView":8,
			"componentType":5126,
			"count":100,
			"max":[
				3.3333333333333335
			],
			"min":[
				0.03333333333333333
			],
			"type":"SCALAR"
		},
		{
			"bufferView":9,
			"componentType":5126,
			"count":100,
			"type":"VEC3"
		},
		{
			"bufferView":10,
			"componentType":5126,
			"count":100,
			"type":"VEC4"
		}
	],
	"bufferViews":[
		{
			"buffer":0,
			"byteLength":33348,
			"byteOffset":0,
			"target":34962
		},
		{
			"buffer":0,
			"byteLength":33348,
			"byteOffset":33348,
			"target":34962
		},
		{
			"buffer":0,
			"byteLength":22232,
			"byteOffset":66696,
			"target":34962
		},
		{
			"buffer":0,
			"byteLength":28272,
			"byteOffset":88928,
			"target":34963
		},
		{
			"buffer":0,
			"byteLength":32376,
			"byteOffset":117200,
			"target":34962
		},
		{
			"buffer":0,
			"byteLength":32376,
			"byteOffset":149576,
			"target":34962
		},
		{
			"buffer":0,
			"byteLength":21584,
			"byteOffset":181952,
			"target":34962
		},
		{
			"buffer":0,
			"byteLength":28272,
			"byteOffset":203536,
			"target":34963
		},
		{
			"buffer":0,
			"byteLength":400,
			"byteOffset":231808
		},
		{
			"buffer":0,
			"byteLength":1200,
			"byteOffset":232208
		},
		{
			"buffer":0,
			"byteLength":1600,
			"byteOffset":233408
		}
	],
	"buffers":[
		{
			"byteLength":235008,
			"uri":"data:application/octet-stream;base64,"
		}
	]
}
