{
	"asset":{
		"generator":"Khronos glTF Blender I/O v3.6.28",
		"version":"2.0"
	},
	"scene":0,
	"scenes":[
		{
			"name":"Scene",
			"nodes":[
				0
			]
		}
	],
	"nodes":[
		{
			"mesh":0,
			"name":"Ribbon.001",
			"rotation":[
				-1,
				0,
				0,
				1.6292068494294654e-07
			],
			"translation":[
				-0.028908418491482735,
				-8.414785385131836,
				0
			]
		}
	],
	"animations":[
		{
			"channels":[
				{
					"sampler":0,
					"target":{
						"node":0,
						"path":"translation"
					}
				},
				{
					"sampler":1,
					"target":{
						"node":0,
						"path":"rotation"
					}
				}
			],
			"name":"Ribbon_Idle",
			"samplers":[
				{
					"input":8,
					"interpolation":"STEP",
					"output":9
				},
				{
					"input":10,
					"interpolation":"LINEAR",
					"output":11
				}
			]
		}
	],
	"materials":[
		{
			"doubleSided":true,
			"name":"Green",
			"pbrMetallicRoughness":{
				"metallicFactor":0,
				"roughnessFactor":0.5
			}
		},
		{
			"doubleSided":true,
			"name":"Red",
			"pbrMetallicRoughness":{
				"metallicFactor":0,
				"roughnessFactor":0.5
			}
		}
	],
	"meshes":[
		{
			"name":"Cube.004",
			"primitives":[
				{
					"attributes":{
						"POSITION":0,
						"NORMAL":1,
						"TEXCOORD_0":2
					},
					"indices":3,
					"material":0
				},
				{
					"attributes":{
						"POSITION":4,
						"NORMAL":5,
						"TEXCOORD_0":6
					},
					"indices":7,
					"material":1
				}
			]
		}
	],
	"accessors":[
		{
			"bufferView":0,
			"componentType":5126,
			"count":2779,
			"max":[
				1.9506789445877075,
				7.884877681732178,
				1.9752732515335083
			],
			"min":[
				-2.0731968879699707,
				-8.181427955627441,
				-2.0918965339660645
			],
			"type":"VEC3"
		},
		{
			"bufferView":1,
			"componentType":5126,
			"count":2779,
			"type":"VEC3"
		},
		{
			"bufferView":2,
			"componentType":5126,
			"count":2779,
			"type":"VEC2"
		},
		{
			"bufferView":3,
			"componentType":5123,
			"count":14136,
			"type":"SCALAR"
		},
		{
			"bufferView":4,
			"componentType":5126,
			"count":2698,
			"max":[
				1.9494025707244873,
				7.884743690490723,
				1.9751425981521606
			],
			"min":[
				-2.071528911590576,
				-8.181427955627441,
				-2.091075897216797
			],
			"type":"VEC3"
		},
		{
			"bufferView":5,
			"componentType":5126,
			"count":2698,
			"type":"VEC3"
		},
		{
			"bufferView":6,
			"componentType":5126,
			"count":2698,
			"type":"VEC2"
		},
		{
			"bufferView":7,
			"componentType":5123,
			"count":14136,
			"type":"SCALAR"
		},
		{
			"bufferView":8,
			"componentType":5126,
			"count":2,
			"max":[
				3.3333333333333335
			],
			"min":[
				0.03333333333333333
			],
			"type":"SCALAR"
		},
		{
			"bufferView":9,
			"componentType":5126,
			"count":2,
			"type":"VEC3"
		},
		{
			"bufferView":10,
			"componentType":5126,
			"count":100,
			"max":[
				3.3333333333333335
			],
			"min":[
				0.03333333333333333
			],
			"type":"SCALAR"
		},
		{
			"bufferView":11,
			"componentType":5126,
			"count":100,
			"type":"VEC4"
		}
	],
	"bufferViews":[
		{
			"buffer":0,
			"byteLength":33348,
			"byteOffset":0,
			"target":34962
		},
		{
			"buffer":0,
			"byteLength":33348,
			"byteOffset":33348,
			"target":34962
		},
		{
			"buffer":0,
			"byteLength":22232,
			"byteOffset":66696,
			"target":34962
		},
		{
			"buffer":0,
			"byteLength":28272,
			"byteOffset":88928,
			"target":34963
		},
		{
			"buffer":0,
			"byteLength":32376,
			"byteOffset":117200,
			"target":34962
		},
		{
			"buffer":0,
			"byteLength":32376,
			"byteOffset":149576,
			"target":34962
		},
		{
			"buffer":0,
			"byteLength":21584,
			"byteOffset":181952,
			"target":34962
		},
		{
			"buffer":0,
			"byteLength":28272,
			"byteOffset":203536,
			"target":34963
		},
		{
			"buffer":0,
			"byteLength":8,
			"byteOffset":231808
		},
		{
			"buffer":0,
			"byteLength":24,
			"byteOffset":231816
		},
		{
			"buffer":0,
			"byteLength":400,
			"byteOffset":231840
		},
		{
			"buffer":0,
			"byteLength":1600,
			"byteOffset":232240
		}
	],
	"buffers":[
		{
			"byteLength":233840,
			"uri":"data:application/octet-stream;base64,"
		}
	]
}
